<svg width="24" height="24" viewBox="0 0 24 24" fill="none" xmlns="http://www.w3.org/2000/svg">
<path d="M11.875 21C15.7889 21 19.75 19.7634 19.75 17.4V6.6C19.75 4.2366 15.7889 3 11.875 3C7.96112 3 4 4.2366 4 6.6V17.4C4 19.7634 7.96112 21 11.875 21ZM11.875 19.2C8.21116 19.2 5.96875 18.0345 5.96875 17.4V16.2588C7.48567 17.013 9.68673 17.4 11.875 17.4C14.0633 17.4 16.2643 17.013 17.7812 16.2588V17.4C17.7812 18.0345 15.5388 19.2 11.875 19.2ZM11.875 4.8C15.5388 4.8 17.7812 5.9655 17.7812 6.6C17.7812 7.2345 15.5388 8.4 11.875 8.4C8.21116 8.4 5.96875 7.2345 5.96875 6.6C5.96875 5.9655 8.21116 4.8 11.875 4.8ZM5.96875 9.0588C7.48567 9.813 9.68673 10.2 11.875 10.2C14.0633 10.2 16.2643 9.813 17.7812 9.0588V10.2C17.7812 10.8345 15.5388 12 11.875 12C8.21116 12 5.96875 10.8345 5.96875 10.2V9.0588ZM5.96875 12.6588C7.48567 13.413 9.68673 13.8 11.875 13.8C14.0633 13.8 16.2643 13.413 17.7812 12.6588V13.8C17.7812 14.4345 15.5388 15.6 11.875 15.6C8.21116 15.6 5.96875 14.4345 5.96875 13.8V12.6588Z" fill="#5950FF"/>
</svg>
