<svg width="76" height="34" viewBox="0 0 76 34" fill="none" xmlns="http://www.w3.org/2000/svg">
<path d="M9.44111 11.0974V13.4874H14.9971V17.8424H0V13.4874H5.1035V11.0974H0.142049V2.18933C0.142049 1.56344 0.349996 1.05108 0.765891 0.652258C1.16275 0.235968 1.66358 0.0263672 2.26839 0.0263672H14.9693V4.32318H5.50036C5.16061 4.32318 4.89995 4.43672 4.72129 4.66524C4.54117 4.89231 4.44158 5.19652 4.42401 5.57642C4.44305 5.89955 4.54117 6.18339 4.72129 6.43083C4.90141 6.67828 5.16061 6.80055 5.50036 6.80055H14.9693V11.0974H9.44111ZM7.42754 19.2077C8.41016 19.2077 9.33128 19.3926 10.1909 19.7623C11.0505 20.132 11.8018 20.64 12.4446 21.2848C13.0875 21.9296 13.5927 22.6836 13.9618 23.5468C14.3308 24.4099 14.5139 25.3255 14.5139 26.2934C14.5139 27.2614 14.3293 28.1769 13.9618 29.0401C13.5927 29.9032 13.0875 30.6528 12.4446 31.2889C11.8018 31.925 11.0505 32.4271 10.1909 32.7969C9.33128 33.1666 8.4087 33.3514 7.42754 33.3514C6.44638 33.3514 5.55601 33.1666 4.70664 32.7969C3.85582 32.4271 3.10896 31.9235 2.46755 31.2889C1.82467 30.6528 1.31944 29.9032 0.950408 29.0401C0.581375 28.1769 0.398322 27.2614 0.398322 26.2934C0.398322 25.3255 0.582839 24.4099 0.950408 23.5468C1.31944 22.6836 1.82467 21.9282 2.46755 21.2848C3.11043 20.64 3.85728 20.132 4.70664 19.7623C5.55747 19.3926 6.46395 19.2077 7.42754 19.2077ZM7.45536 28.9134C7.81414 28.9134 8.15389 28.8465 8.47606 28.714C8.79677 28.5816 9.07647 28.3967 9.31224 28.1594C9.54802 27.9222 9.73693 27.6427 9.87897 27.3196C10.021 26.9964 10.0913 26.6558 10.0913 26.2949C10.0913 25.9339 10.021 25.5933 9.87897 25.2702C9.73693 24.947 9.54802 24.6676 9.31224 24.4303C9.07501 24.193 8.79677 24.0038 8.47606 23.8612C8.15389 23.7185 7.81414 23.6472 7.45536 23.6472C7.09658 23.6472 6.75537 23.7185 6.43466 23.8612C6.11249 24.0038 5.83425 24.193 5.59848 24.4303C5.36124 24.6676 5.17379 24.947 5.03175 25.2702C4.8897 25.5918 4.81941 25.9339 4.81941 26.2949C4.81941 26.6558 4.8897 26.9964 5.03175 27.3196C5.17379 27.6413 5.3627 27.9222 5.59848 28.1594C5.83425 28.3967 6.11249 28.5816 6.43466 28.714C6.75537 28.8465 7.09658 28.9134 7.45536 28.9134Z" fill="white"/>
<path d="M24.4936 14.0289C23.53 14.0289 22.6265 13.844 21.7859 13.4743C20.9453 13.1046 20.2131 12.6068 19.5893 11.9794C18.9654 11.3535 18.469 10.6185 18.1014 9.77426C17.7324 8.93003 17.5493 8.02467 17.5493 7.05672C17.5493 6.08878 17.7338 5.17905 18.1014 4.32464C18.4704 3.47022 18.9654 2.7308 19.5893 2.10491C20.2131 1.47902 20.9453 0.981215 21.7859 0.610047C22.6265 0.240335 23.53 0.0554784 24.4936 0.0554784C25.4572 0.0554784 26.3651 0.240335 27.2145 0.610047C28.0653 0.979759 28.8019 1.47756 29.4258 2.10491C30.0496 2.7308 30.546 3.47168 30.9136 4.32464C31.2826 5.17905 31.4657 6.08878 31.4657 7.05672C31.4657 8.02467 31.2812 8.93003 30.9136 9.77426C30.5446 10.6185 30.0496 11.3535 29.4258 11.9794C28.8019 12.6053 28.0653 13.1031 27.2145 13.4743C26.3637 13.844 25.4572 14.0289 24.4936 14.0289ZM24.4936 4.97818C23.9269 4.97818 23.4451 5.1776 23.0482 5.57642C22.6514 5.97524 22.4522 6.46868 22.4522 7.05672C22.4522 7.64477 22.6514 8.10909 23.0482 8.50792C23.4451 8.90674 23.9269 9.10615 24.4936 9.10615C25.0603 9.10615 25.5714 8.90674 25.9683 8.50792C26.3651 8.10909 26.5643 7.62585 26.5643 7.05672C26.5643 6.4876 26.3651 5.97524 25.9683 5.57642C25.5714 5.1776 25.0794 4.97818 24.4936 4.97818ZM42.3537 9.24734H39.1788V13.943H34.8412V0.0263672H39.1788V4.89376H42.3537V9.2488V9.24734Z" fill="white"/>
<path d="M40.4824 31.6115V20.9961C40.4824 20.3702 40.6904 19.8476 41.1063 19.4314C41.5222 19.0136 42.042 18.8055 42.6659 18.8055H43.1477L43.1755 18.7764H44.7629C45.4995 18.7764 45.8686 18.4168 45.8686 17.6949V15.8172C45.8686 15.0967 45.4995 14.7357 44.7629 14.7357H40.4824V10.353H50.2355V23.1882H45.9257C45.2066 23.1882 44.8479 23.5491 44.8479 24.2696V26.1473C44.8479 26.8867 45.2066 27.2579 45.9257 27.2579H50.2355V31.6129H40.4824V31.6115ZM57.9471 31.6406H53.6373V17.6949H57.9471V31.6406Z" fill="white"/>
<path d="M61.3719 21.8756C61.8259 21.4579 62.3355 21.2497 62.9022 21.2497H75.773V33.146H60.748V23.4127C60.748 22.8057 60.956 22.2934 61.3719 21.8756ZM61.0029 19.7985V15.4435H76V19.7985H61.0029ZM68.5168 13.9734C67.5532 13.9734 66.6497 13.7885 65.8091 13.4188C64.9685 13.0491 64.2363 12.5513 63.6125 11.924C62.9886 11.2981 62.4922 10.5572 62.1246 9.70422C61.7556 8.84981 61.5725 7.94008 61.5725 6.97214C61.5725 6.00419 61.757 5.09883 62.1246 4.2546C62.4936 3.41038 62.9886 2.67532 63.6125 2.04943C64.2363 1.42354 64.9685 0.925736 65.8091 0.554569C66.6497 0.184856 67.5532 0 68.5168 0C69.4804 0 70.3825 0.184856 71.2245 0.554569C72.0651 0.924281 72.8017 1.42208 73.4358 2.04943C74.0684 2.67532 74.5692 3.41038 74.9383 4.2546C75.3073 5.09883 75.4904 6.00419 75.4904 6.97214C75.4904 7.94008 75.3058 8.84981 74.9383 9.70422C74.5692 10.5586 74.0684 11.2981 73.4358 11.924C72.8017 12.5498 72.0651 13.0476 71.2245 13.4188C70.3839 13.7885 69.4804 13.9734 68.5168 13.9734ZM65.0578 27.7663C65.0578 28.4868 65.4166 28.8478 66.1356 28.8478H71.409V25.5742H66.1356C65.4166 25.5742 65.0578 25.9337 65.0578 26.6557V27.7663ZM68.5168 4.89505C67.9501 4.89505 67.4624 5.09883 67.0568 5.50639C66.6497 5.91394 66.4476 6.40301 66.4476 6.97214C66.4476 7.54126 66.6511 8.03033 67.0568 8.43788C67.4624 8.84544 67.9501 9.04922 68.5168 9.04922C69.0835 9.04922 69.5697 8.84544 69.9768 8.43788C70.3825 8.03033 70.586 7.54126 70.586 6.97214C70.586 6.40301 70.3825 5.91394 69.9768 5.50639C69.5697 5.09883 69.0835 4.89505 68.5168 4.89505Z" fill="white"/>
</svg>
