<svg width="19" height="22" viewBox="0 0 19 22" fill="none" xmlns="http://www.w3.org/2000/svg">
<path fill-rule="evenodd" clip-rule="evenodd" d="M17.131 1.15998C16.5684 0.597563 15.8055 0.281616 15.01 0.281616C14.2145 0.281616 13.4516 0.597563 12.889 1.15998L12.182 1.86798L17.132 6.81798L17.838 6.11098C18.1167 5.83239 18.3377 5.50165 18.4885 5.13764C18.6393 4.77363 18.7169 4.38348 18.7169 3.98948C18.7169 3.59547 18.6393 3.20532 18.4885 2.84131C18.3377 2.4773 18.1167 2.14656 17.838 1.86798L17.131 1.15998ZM15.717 8.23198L10.767 3.28198L1.67703 12.373C1.47811 12.5719 1.33915 12.8228 1.27603 13.097L0.247026 17.552C0.208685 17.7174 0.213083 17.8898 0.259805 18.053C0.306527 18.2162 0.394036 18.3649 0.514085 18.4849C0.634134 18.605 0.78277 18.6925 0.94599 18.7392C1.10921 18.7859 1.28164 18.7903 1.44703 18.752L5.90303 17.724C6.17683 17.6607 6.42735 17.5217 6.62603 17.323L15.717 8.23198Z" fill="#999999"/>
</svg>
