<svg width="62" height="26" viewBox="0 0 62 26" fill="none" xmlns="http://www.w3.org/2000/svg">
<g clip-path="url(#clip0_927_3816)">
<path d="M8.05434 8.63752V10.5022H12.5V13.9H0.5V10.5022H4.58359V8.63752H0.613661V1.68753C0.613661 1.19921 0.780051 0.799476 1.11283 0.488316C1.43038 0.163529 1.83112 0 2.31506 0H12.4777V3.35235H4.90113C4.62928 3.35235 4.42071 3.44093 4.27776 3.61922C4.13363 3.79637 4.05395 4.03372 4.03989 4.33012C4.05512 4.58222 4.13363 4.80367 4.27776 4.99672C4.42188 5.18978 4.62928 5.28517 4.90113 5.28517H12.4777V8.63752H8.05434ZM6.44317 14.9652C7.22942 14.9652 7.96646 15.1094 8.65428 15.3979C9.3421 15.6863 9.94322 16.0826 10.4576 16.5857C10.972 17.0888 11.3763 17.677 11.6716 18.3505C11.9668 19.0239 12.1133 19.7382 12.1133 20.4934C12.1133 21.2486 11.9657 21.9629 11.6716 22.6363C11.3763 23.3097 10.972 23.8946 10.4576 24.3908C9.94322 24.8871 9.3421 25.2789 8.65428 25.5673C7.96646 25.8558 7.22825 26 6.44317 26C5.65809 26 4.94566 25.8558 4.26604 25.5673C3.58525 25.2789 2.98765 24.886 2.47442 24.3908C1.96001 23.8946 1.55576 23.3097 1.26047 22.6363C0.965189 21.9629 0.818719 21.2486 0.818719 20.4934C0.818719 19.7382 0.966361 19.0239 1.26047 18.3505C1.55576 17.677 1.96001 17.0877 2.47442 16.5857C2.98882 16.0826 3.58642 15.6863 4.26604 15.3979C4.94683 15.1094 5.67215 14.9652 6.44317 14.9652ZM6.46543 22.5375C6.75251 22.5375 7.02436 22.4853 7.28215 22.3819C7.53877 22.2786 7.76257 22.1344 7.95123 21.9492C8.13988 21.7641 8.29104 21.5461 8.4047 21.294C8.51836 21.0419 8.5746 20.7762 8.5746 20.4945C8.5746 20.2129 8.51836 19.9471 8.4047 19.695C8.29104 19.4429 8.13988 19.2249 7.95123 19.0398C7.7614 18.8547 7.53877 18.7071 7.28215 18.5958C7.02436 18.4845 6.75251 18.4288 6.46543 18.4288C6.17835 18.4288 5.90533 18.4845 5.64872 18.5958C5.39093 18.7071 5.16829 18.8547 4.97964 19.0398C4.78982 19.2249 4.63983 19.4429 4.52617 19.695C4.41251 19.946 4.35626 20.2129 4.35626 20.4945C4.35626 20.7762 4.41251 21.0419 4.52617 21.294C4.63983 21.545 4.79099 21.7641 4.97964 21.9492C5.16829 22.1344 5.39093 22.2786 5.64872 22.3819C5.90533 22.4853 6.17835 22.5375 6.46543 22.5375Z" fill="#5950FF"/>
<path d="M20.0992 11C19.3223 11 18.5938 10.8548 17.916 10.5643C17.2382 10.2739 16.6478 9.88285 16.1448 9.39002C15.6418 8.89834 15.2415 8.32089 14.9452 7.65769C14.6476 6.99449 14.5 6.28326 14.5 5.52287C14.5 4.76247 14.6488 4.04782 14.9452 3.37661C15.2427 2.70541 15.6418 2.12453 16.1448 1.63285C16.6478 1.14116 17.2382 0.750104 17.916 0.458524C18.5938 0.168087 19.3223 0.022869 20.0992 0.022869C20.8762 0.022869 21.6083 0.168087 22.2931 0.458524C22.9792 0.748961 23.5731 1.14002 24.0761 1.63285C24.5791 2.12453 24.9794 2.70655 25.2758 3.37661C25.5733 4.04782 25.7209 4.76247 25.7209 5.52287C25.7209 6.28326 25.5721 6.99449 25.2758 7.65769C24.9782 8.32089 24.5791 8.89834 24.0761 9.39002C23.5731 9.88171 22.9792 10.2728 22.2931 10.5643C21.6071 10.8548 20.8762 11 20.0992 11ZM20.0992 3.89002C19.6423 3.89002 19.2538 4.04667 18.9338 4.35998C18.6138 4.67329 18.4532 5.06091 18.4532 5.52287C18.4532 5.98482 18.6138 6.34958 18.9338 6.66289C19.2538 6.9762 19.6423 7.13285 20.0992 7.13285C20.5562 7.13285 20.9683 6.9762 21.2883 6.66289C21.6083 6.34958 21.7689 5.96996 21.7689 5.52287C21.7689 5.07578 21.6083 4.67329 21.2883 4.35998C20.9683 4.04667 20.5716 3.89002 20.0992 3.89002ZM34.5 7.24376H31.9401V10.9325H28.4426V0H31.9401V3.8237H34.5V7.24491V7.24376Z" fill="#5950FF"/>
<path d="M32.5 24.9768V16.4994C32.5 15.9996 32.6667 15.5823 33.0001 15.2498C33.3335 14.9162 33.7502 14.75 34.2503 14.75H34.6365L34.6588 14.7268H35.9313C36.5218 14.7268 36.8176 14.4397 36.8176 13.8631V12.3636C36.8176 11.7882 36.5218 11.5 35.9313 11.5H32.5V8H40.3182V18.25H36.8634C36.287 18.25 35.9994 18.5383 35.9994 19.1136V20.6131C35.9994 21.2036 36.287 21.5 36.8634 21.5H40.3182V24.9779H32.5V24.9768ZM46.5 25H43.0452V13.8631H46.5V25Z" fill="#5950FF"/>
<path d="M49.9908 17.1594C50.348 16.8317 50.749 16.6685 51.1949 16.6685H61.3214V26H49.5V18.3651C49.5 17.889 49.6636 17.4871 49.9908 17.1594ZM49.7005 15.5301V12.114H61.5V15.5301H49.7005ZM55.6123 10.9608C54.8542 10.9608 54.1433 10.8158 53.482 10.5258C52.8206 10.2358 52.2445 9.84534 51.7537 9.35324C51.2628 8.86229 50.8723 8.28113 50.5831 7.61207C50.2927 6.94186 50.1487 6.22826 50.1487 5.469C50.1487 4.70973 50.2939 3.99956 50.5831 3.33734C50.8734 2.67513 51.2628 2.09854 51.7537 1.60759C52.2445 1.11663 52.8206 0.726155 53.482 0.435008C54.1433 0.145003 54.8542 0 55.6123 0C56.3705 0 57.0802 0.145003 57.7427 0.435008C58.4041 0.725013 58.9836 1.11549 59.4825 1.60759C59.9803 2.09854 60.3743 2.67513 60.6647 3.33734C60.955 3.99956 61.099 4.70973 61.099 5.469C61.099 6.22826 60.9539 6.94186 60.6647 7.61207C60.3743 8.28228 59.9803 8.86229 59.4825 9.35324C58.9836 9.84419 58.4041 10.2347 57.7427 10.5258C57.0814 10.8158 56.3705 10.9608 55.6123 10.9608ZM52.8909 21.7801C52.8909 22.3452 53.1732 22.6284 53.7389 22.6284H57.8879V20.0606H53.7389C53.1732 20.0606 52.8909 20.3426 52.8909 20.9089V21.7801ZM55.6123 3.83972C55.1664 3.83972 54.7828 3.99956 54.4636 4.31925C54.1433 4.63894 53.9843 5.02257 53.9843 5.469C53.9843 5.91542 54.1445 6.29905 54.4636 6.61874C54.7828 6.93843 55.1664 7.09828 55.6123 7.09828C56.0582 7.09828 56.4408 6.93843 56.7611 6.61874C57.0802 6.29905 57.2404 5.91542 57.2404 5.469C57.2404 5.02257 57.0802 4.63894 56.7611 4.31925C56.4408 3.99956 56.0582 3.83972 55.6123 3.83972Z" fill="#5950FF"/>
</g>
<defs>
<clipPath id="clip0_927_3816">
<rect width="61" height="26" fill="white" transform="translate(0.5)"/>
</clipPath>
</defs>
</svg>
