<svg width="24" height="24" viewBox="0 0 24 24" fill="none" xmlns="http://www.w3.org/2000/svg">
<path fill-rule="evenodd" clip-rule="evenodd" d="M5 8.99992C5.00034 7.65823 5.38627 6.3449 6.11182 5.21631C6.83737 4.08772 7.87197 3.19142 9.09245 2.63413C10.3129 2.07684 11.6678 1.88204 12.9959 2.07292C14.3239 2.2638 15.5691 2.83233 16.5833 3.7108C17.5974 4.58927 18.3377 5.74068 18.716 7.02793C19.0943 8.31518 19.0947 9.68404 18.7171 10.9715C18.3396 12.259 17.6 13.4108 16.5864 14.2899C15.5728 15.169 14.3279 15.7382 13 15.9299V20.9999C13 21.2651 12.8946 21.5195 12.7071 21.707C12.5196 21.8946 12.2652 21.9999 12 21.9999C11.7348 21.9999 11.4804 21.8946 11.2929 21.707C11.1054 21.5195 11 21.2651 11 20.9999V15.9299C9.3337 15.6894 7.8099 14.8564 6.70791 13.5836C5.60592 12.3108 4.99957 10.6835 5 8.99992ZM10.94 7.93992C11.221 7.65853 11.6023 7.50027 12 7.49992C12.2652 7.49992 12.5196 7.39456 12.7071 7.20702C12.8946 7.01949 13 6.76513 13 6.49992C13 6.2347 12.8946 5.98035 12.7071 5.79281C12.5196 5.60527 12.2652 5.49992 12 5.49992C11.0717 5.49992 10.1815 5.86867 9.52513 6.52504C8.86875 7.18142 8.5 8.07166 8.5 8.99992C8.5 9.26513 8.60536 9.51949 8.79289 9.70702C8.98043 9.89456 9.23478 9.99992 9.5 9.99992C9.76522 9.99992 10.0196 9.89456 10.2071 9.70702C10.3946 9.51949 10.5 9.26513 10.5 8.99992C10.5 8.60192 10.658 8.21992 10.94 7.93992Z" fill="#5950FF"/>
</svg>
